<svg width="114" height="48" viewBox="0 0 114 48" fill="none" xmlns="http://www.w3.org/2000/svg">
<path d="M52.3347 26.5814H46.8471V32.25H43.989V18.3786H53.0206V20.6937H46.8471V24.2759H52.3347V26.5814ZM57.4031 32.25H54.6402V21.9417H57.4031V32.25ZM54.4783 19.2742C54.4783 18.8613 54.6148 18.5215 54.8879 18.2548C55.1674 17.988 55.5453 17.8546 56.0217 17.8546C56.4917 17.8546 56.8664 17.988 57.1459 18.2548C57.4253 18.5215 57.565 18.8613 57.565 19.2742C57.565 19.6934 57.4221 20.0363 57.1363 20.3031C56.8569 20.5698 56.4853 20.7032 56.0217 20.7032C55.558 20.7032 55.1833 20.5698 54.8975 20.3031C54.618 20.0363 54.4783 19.6934 54.4783 19.2742ZM62.2142 21.9417L62.3 23.1326C63.0367 22.2117 64.0244 21.7512 65.2629 21.7512C66.3553 21.7512 67.1683 22.0719 67.7018 22.7134C68.2353 23.3549 68.5084 24.314 68.5211 25.5906V32.25H65.7678V25.6573C65.7678 25.073 65.6408 24.6506 65.3867 24.3902C65.1327 24.1234 64.7103 23.9901 64.1196 23.9901C63.3448 23.9901 62.7636 24.3203 62.3762 24.9809V32.25H59.6229V21.9417H62.2142ZM75.3616 32.4405C73.8499 32.4405 72.6178 31.9769 71.6651 31.0496C70.7187 30.1223 70.2455 28.887 70.2455 27.3436V27.0768C70.2455 26.0415 70.4456 25.1174 70.8457 24.3044C71.2459 23.4851 71.8111 22.8563 72.5416 22.4181C73.2783 21.9735 74.1167 21.7512 75.0567 21.7512C76.4667 21.7512 77.575 22.1958 78.3816 23.085C79.1946 23.9742 79.6011 25.2349 79.6011 26.8672V27.9914H73.037C73.1259 28.6647 73.3926 29.2045 73.8372 29.611C74.2882 30.0175 74.8566 30.2207 75.5426 30.2207C76.6033 30.2207 77.4321 29.8365 78.0291 29.068L79.382 30.5828C78.9691 31.1671 78.4102 31.6244 77.7052 31.9547C77.0002 32.2786 76.219 32.4405 75.3616 32.4405ZM75.0472 23.9805C74.501 23.9805 74.0564 24.1647 73.7134 24.5331C73.3768 24.9015 73.1608 25.4286 73.0655 26.1146H76.8954V25.8955C76.8827 25.2857 76.7176 24.8157 76.4 24.4855C76.0824 24.1488 75.6315 23.9805 75.0472 23.9805ZM84.2122 27.3626V32.25H81.3541V18.3786H86.7654C87.8071 18.3786 88.7217 18.5692 89.5092 18.9502C90.3031 19.3313 90.9129 19.8744 91.3384 20.5794C91.764 21.278 91.9767 22.0751 91.9767 22.9707C91.9767 24.3299 91.5099 25.4032 90.5762 26.1908C89.649 26.972 88.3628 27.3626 86.7178 27.3626H84.2122ZM84.2122 25.0476H86.7654C87.5212 25.0476 88.096 24.8697 88.4898 24.514C88.89 24.1584 89.09 23.6503 89.09 22.9897C89.09 22.3101 88.89 21.7607 88.4898 21.3415C88.0897 20.9223 87.5371 20.7064 86.8321 20.6937H84.2122V25.0476ZM99.6269 32.25C99.4999 32.0023 99.4078 31.6943 99.3507 31.3259C98.6838 32.069 97.8168 32.4405 96.7498 32.4405C95.7399 32.4405 94.9015 32.1484 94.2346 31.5641C93.5741 30.9797 93.2438 30.243 93.2438 29.3538C93.2438 28.2613 93.6471 27.423 94.4538 26.8386C95.2667 26.2543 96.4386 25.959 97.9692 25.9526H99.2363V25.3619C99.2363 24.8856 99.1125 24.5045 98.8648 24.2187C98.6234 23.9329 98.2392 23.79 97.712 23.79C97.2484 23.79 96.8832 23.9011 96.6164 24.1234C96.356 24.3457 96.2258 24.6506 96.2258 25.038H93.4725C93.4725 24.441 93.6567 23.8884 94.025 23.3803C94.3934 22.8722 94.9142 22.4753 95.5875 22.1894C96.2607 21.8973 97.0165 21.7512 97.8549 21.7512C99.1252 21.7512 100.132 22.0719 100.875 22.7134C101.624 23.3486 101.999 24.2441 101.999 25.4001V29.8682C102.006 30.8463 102.142 31.5863 102.409 32.088V32.25H99.6269ZM97.35 30.3351C97.7565 30.3351 98.1312 30.2461 98.4742 30.0683C98.8171 29.8841 99.0712 29.6396 99.2363 29.3347V27.5627H98.2074C96.8292 27.5627 96.0956 28.039 96.0067 28.9918L95.9971 29.1537C95.9971 29.4967 96.1178 29.7793 96.3592 30.0016C96.6005 30.2239 96.9308 30.3351 97.35 30.3351ZM107.811 28.3534L109.716 21.9417H112.669L108.525 33.8505L108.297 34.3936C107.68 35.7401 106.664 36.4133 105.248 36.4133C104.848 36.4133 104.441 36.353 104.028 36.2323V34.1459L104.448 34.1554C104.968 34.1554 105.356 34.076 105.61 33.9172C105.87 33.7584 106.074 33.4949 106.22 33.1265L106.544 32.2786L102.933 21.9417H105.896L107.811 28.3534Z" fill="#00162A"/>
<path d="M38.5852 0H20.5981V43.5957L38.5852 0Z" fill="#00162A"/>
<path d="M4.74501 7.31677H19.9883V43.2909L4.74501 7.31677Z" fill="#00162A"/>
<path d="M0.00044008 24.9029L9.46973 20.6869L19.6377 43.5246L0.00044008 24.9029Z" fill="#00162A"/>
</svg>
